PathFileType	4	(X/Y/Z)	C:/Users/beibeiliu/ov580/test_trc/User3\sequence.15_training_dense_left.trc
DataRate	CameraRate	NumFrames	NumMarkers	Units	OrigDataRate	OrigDataStartFrame	OrigNumFrames
120	120	17	19	mm	120	59	234
Frame#	Time	ThumbCMC			ThumbMCP			ThumbIP			ThumbTip			IndexMCP			IndexPIP			IndexTip			MiddleMCP			MiddlePIP			MiddleTip			RingMCP			RingPIP			RingTip			PinkyMCP			PinkyPIP			PinkyTip			BackHand1			BackHand2			BackHand3	
		X0	Y0	Z0	X1	Y1	Z1	X2	Y2	Z2	X3	Y3	Z3	X4	Y4	Z4	X5	Y5	Z5	X6	Y6	Z6	X7	Y7	Z7	X8	Y8	Z8	X9	Y9	Z9	X10	Y10	Z10	X11	Y11	Z11	X12	Y12	Z12	X13	Y13	Z13	X14	Y14	Z14	X15	Y15	Z15	X16	Y16	Z16	X17	Y17	Z17	X18	Y18	Z18	
58	0.483333	-198.931	20.6701	18.2182	-189.341	28.0299	-11.8353	-182.423	37.1184	-38.2024	-181.752	34.1358	-65.721	-237.57	30.9465	-48.104	-219.317	29.4506	-74.2211	-187.468	16.7374	-78.1519	-259.278	15.682	-50.2132	-257.304	24.4801	-83.4319	-247.486	27.905	-114.098	-260.466	-5.07628	-46.2908	-264.312	-0.348659	-75.4871	-260.756	2.74065	-98.8863	-255.544	-28.7918	-40.6772	-258.263	-24.4703	-62.991	-257.532	-23.027	-89.6333	-253.084	-14.6829	2.05005	-243.766	-26.8446	31.3204	-239.875	8.78554	20.0639	
59	0.491667	-191.415	15.8173	18.0819	-182.315	23.0914	-12.9064	-176.531	30.5843	-40.4744	-180.031	25.8466	-66.6905	-230.017	37.1245	-50.1154	-210.399	32.0437	-74.6826	-191.326	14.4693	-79.2698	-257.67	25.1777	-50.4888	-255.168	33.2649	-76.5538	-247.724	30.978	-109.488	-262.692	4.86165	-46.8455	-264.899	11.3381	-73.6396	-264.567	11.1511	-101.953	-259.365	-20.8568	-37.624	-264.242	-16.6154	-65.6973	-262.777	-14.8497	-84.9495	-254.703	-13.2908	7.73705	-246.968	-22.6325	32.4706	-232.346	15.4812	22.54	
60	0.5	-187.132	10.8019	16.9443	-178.088	17.4002	-13.1469	-171.621	26.0148	-45.6195	-177.736	20.4593	-66.9203	-225.934	35.2759	-44.8736	-211.412	28.2599	-74.3451	-188.203	3.95248	-81.012	-250.066	32.1653	-47.9618	-250.354	35.6961	-75.265	-241.066	37.8302	-111.468	-261.139	9.56225	-44.7782	-265.676	13.638	-72.0031	-263.022	16.6524	-97.0293	-261.116	-13.9902	-37.8398	-267.169	-13.0764	-61.5987	-270.402	-10.8096	-83.6127	-253.281	-4.61847	5.09008	-243.795	-18.9672	34.1075	-229.249	10.6859	21.1036	
61	0.508333	-182.526	5.43277	13.4341	-170.456	10.4352	-15.8061	-163.878	15.7208	-44.8518	-170.821	12.2779	-72.3455	-220.739	31.6532	-47.6479	-205.878	21.6027	-77.1628	-184.475	-1.26325	-81.8323	-244.497	31.8646	-51.3787	-244.372	35.0521	-81.1517	-236.099	33.9758	-112.882	-259.253	8.76888	-44.7816	-262.084	16.9229	-71.8303	-263.284	15.2014	-100.373	-264.909	-13.1753	-39.8149	-267.988	-9.60145	-62.7608	-268.168	-7.81296	-84.3211	-251.757	-3.70495	3.8384	-243.484	-16.4961	30.3088	-221.019	14.1731	22.8771	
62	0.516667	-178.872	-1.93823	12.2371	-167.083	2.40596	-20.4522	-160.898	3.50633	-45.5547	-168.684	0.0608552	-73.6635	-212.046	26.7149	-54.3944	-199.367	14.7173	-79.6142	-184.245	-15.7966	-82.4384	-237.526	27.8595	-53.0696	-234.869	32.0862	-85.386	-232.191	25.8887	-115.355	-254.742	9.39549	-48.5889	-256.814	16.4054	-72.6752	-258.283	13.5237	-103.493	-261.39	-12.7121	-39.3449	-266.546	-10.871	-62.8779	-269.879	-9.54851	-86.8601	-245.878	-2.48081	7.67396	-239.211	-14.3811	30.4128	-216.959	10.7644	18.4313	
63	0.525	-176.999	-7.76789	10.0351	-162.915	-6.65662	-19.7552	-157.694	-6.89038	-47.8843	-165.011	-13.2902	-73.625	-205.593	18.3755	-56.9218	-193.326	0.849305	-82.8805	-179.181	-27.3421	-82.0831	-232.215	20.7929	-59.2426	-228.539	22.563	-86.6206	-221.453	16.1422	-119.35	-248.074	4.95072	-48.168	-251.221	10.183	-77.3861	-254.044	5.854	-103.977	-255.931	-14.6793	-37.9268	-264.172	-15.0283	-62.3617	-264.096	-12.1573	-87.1526	-241.098	-2.90032	3.66859	-241.855	-15.8352	31.5714	-212.96	10.884	14.4317	
64	0.533333	-176.8	-11.5311	7.79567	-158.632	-15.2047	-18.4275	-152.692	-16.0829	-53.1669	-162.149	-26.1597	-72.5942	-201.773	8.27497	-62.8452	-188.868	-12.3837	-85.5137	-175.839	-36.6484	-82.0011	-225.625	14.489	-62.3137	-224.711	11.3076	-93.3756	-219.887	2.57897	-123.723	-247.185	-0.829216	-53.266	-249.125	1.58782	-78.7673	-248.802	-2.84486	-107.393	-252.621	-19.0815	-40.8549	-261.214	-19.3349	-64.0021	-266.859	-22.6213	-85.7957	-240.133	-5.90632	1.02206	-236.902	-15.5386	28.2763	-208.246	5.65098	11.0627	
65	0.541667	-173.518	-15.1987	6.80527	-157.826	-19.8976	-24.0664	-150.969	-27.6709	-47.8157	-158.876	-37.1914	-72.4246	-197.887	0.512042	-61.7602	-187.487	-24.6601	-85.2407	-174.621	-53.5198	-79.0198	-222.288	5.30271	-66.1055	-223.7	-1.08306	-95.743	-220.138	-11.5932	-122.698	-240.022	-6.93196	-56.5311	-245.628	-7.98445	-83.3239	-248.893	-15.3551	-108.866	-251.569	-24.854	-43.9311	-261.326	-29.1605	-63.871	-261.587	-27.9908	-87.5244	-236.754	-10.3045	0.145706	-238.562	-14.2182	24.9757	-209.006	3.13117	9.36829	
66	0.55	-169.386	-17.1139	6.23488	-152.031	-24.559	-20.1203	-147.479	-34.6925	-49.062	-153.414	-48.0728	-71.8856	-193.061	-9.26961	-63.8038	-182.035	-34.7753	-84.8385	-169.662	-63.1463	-75.0971	-221.025	-5.95942	-69.817	-216.367	-10.4382	-95.0501	-212.713	-29.5314	-126.228	-238.591	-16.7713	-58.4139	-245.606	-19.9223	-83.8016	-244.044	-27.8127	-107.815	-249.752	-33.6311	-39.4209	-255.604	-36.273	-63.1278	-262.669	-43.3705	-85.6132	-234.125	-11.8106	-2.22869	-234.864	-16.2285	22.6956	-205.648	1.7849	6.42829	
67	0.558333	-166.965	-16.6565	5.64475	-150.101	-28.4091	-18.4602	-141.808	-40.4972	-47.5884	-152.772	-57.3289	-66.893	-191.881	-21.4124	-65.2298	-177.31	-45.6305	-81.8251	-163.772	-72.1401	-71.467	-217.545	-19.1132	-70.1703	-213.645	-28.7639	-98.7995	-207.973	-47.0962	-123.205	-235.052	-27.8191	-59.1381	-238.697	-35.2099	-87.4334	-236.768	-47.0174	-110.637	-247.659	-42.9901	-43.7975	-253.629	-49.3916	-65.6363	-254.149	-57.771	-88.8387	-234.018	-16.1787	-5.33589	-232.002	-17.6187	19.6342	-204.292	-1.50982	2.1651	
68	0.566667	-166.46	-15.7675	6.71308	-146.489	-28.5049	-16.8151	-140.396	-43.0508	-40.1021	-142.595	-63.2174	-60.4662	-185.732	-32.1853	-67.124	-169.408	-60.1267	-78.0297	-159.224	-81.8963	-63.7915	-214.341	-31.3928	-71.867	-208.989	-44.83	-95.6736	-196.25	-64.4459	-118.902	-229.308	-39.5173	-58.3161	-232.029	-51.1518	-84.8853	-231.145	-67.4158	-105.373	-244.207	-55.4349	-40.6215	-245.946	-62.5971	-63.6827	-244.66	-72.3585	-84.1585	-232.154	-23.3472	-11.0086	-235.351	-19.9571	18.7498	-205.986	-6.1295	-2.00052	
69	0.575	-170.807	-15.0297	7.42003	-147.707	-27.6588	-16.8127	-135.172	-43.4088	-38.4079	-133.832	-64.643	-52.8456	-179.081	-39.0547	-65.8694	-161.784	-66.9034	-71.157	-148.72	-85.7174	-55.1013	-208.918	-46.7376	-72.9756	-201.552	-60.9174	-92.7851	-184.265	-83.9721	-113.309	-226.617	-55.7069	-57.2585	-226.28	-68.0321	-79.939	-216.41	-85.258	-100.308	-237.738	-67.3473	-39.0234	-236.862	-77.4213	-59.3709	-236.48	-91.0641	-76.1181	-233.305	-30.4873	-7.93776	-235.246	-24.8111	21.2605	-207.658	-9.00351	-3.34067	
70	0.583333	-169.71	-10.3299	5.86134	-149.241	-25.1152	-12.7381	-130.818	-41.5983	-33.1228	-127.151	-63.6335	-46.8998	-174.826	-44.9439	-63.715	-153.982	-65.0977	-68.2042	-137.342	-87.0686	-45.8326	-200.265	-53.8904	-68.3563	-190.974	-73.016	-87.6455	-169.345	-92.6186	-103.838	-219.537	-66.3876	-53.9236	-211.418	-82.6906	-79.0992	-200.197	-104.051	-95.5198	-229.52	-79.0425	-36.1989	-228.582	-93.1784	-50.9389	-218.869	-107.007	-72.0854	-231.715	-39.3584	-10.9011	-231.435	-26.3447	17.4381	-208.696	-11.6205	-5.16679	
71	0.591667	-171.682	-8.94292	2.34357	-145.725	-18.4423	-8.92042	-129.415	-37.6375	-27.8487	-119.046	-60.0225	-39.2956	-172.581	-52.7625	-58.6396	-145.706	-70.821	-59.2821	-127.783	-83.2014	-36.9027	-194.659	-61.6634	-65.2424	-177.786	-78.7239	-83.0111	-154.357	-102.277	-96.3365	-208.014	-74.5031	-53.6656	-201.864	-89.8318	-70.0576	-184.738	-113.439	-86.8625	-218.878	-84.9553	-28.0253	-212.937	-101.363	-47.1342	-204.112	-117.107	-65.092	-227.65	-45.7451	-12.2878	-233.735	-31.983	14.7443	-208.039	-12.9034	-9.68112	
72	0.6	-173.714	-3.80927	6.66404	-146.114	-14.5113	-7.62419	-123.416	-29.4447	-24.1733	-116.334	-54.1073	-32.7708	-165.029	-52.9435	-56.1425	-138.739	-69.2581	-54.945	-118.815	-75.4824	-33.1866	-185.143	-69.8261	-62.5518	-166.147	-87.7592	-76.8351	-142.629	-104.609	-86.0572	-199.221	-80.8815	-48.6578	-186.781	-97.3075	-67.0488	-167.336	-115.814	-79.1358	-206.304	-87.6284	-26.4043	-199.549	-107.072	-39.7146	-189.454	-125.702	-53.5744	-226.053	-49.6505	-9.66652	-233.373	-33.0898	15.6151	-210.239	-16.9459	-8.167	
73	0.608333	-177.932	-2.23791	6.72355	-148.944	-12.1278	-8.66206	-122.841	-26.1387	-22.5838	-108.477	-43.8186	-26.5795	-158.732	-49.2205	-52.19	-127.392	-61.6362	-49.7839	-110.713	-68.813	-22.997	-174.755	-68.1683	-57.5889	-155.947	-84.6819	-69.5583	-126.02	-103.472	-78.5108	-188.197	-81.0776	-43.5032	-170.352	-99.5199	-60.2951	-150.291	-117.935	-69.1055	-194.31	-94.0052	-24.105	-184.17	-112.548	-31.8614	-166.908	-125.247	-44.981	-217.653	-52.5638	-11.684	-231.424	-43.503	12.875	-209.204	-21.2073	-10.4683	
74	0.616667	-181.264	-3.04363	5.51492	-148.505	-3.83263	-7.18842	-122.029	-18.1134	-20.032	-104.615	-32.6641	-23.6334	-152.555	-48.5669	-48.3139	-121.977	-57.6493	-44.2181	-102.794	-54.8556	-19.2572	-164.181	-70.1169	-54.7824	-142.42	-83.1656	-63.4354	-113.566	-93.0352	-71.4046	-177.098	-80.9215	-38.4373	-157.396	-101.477	-53.2268	-137.971	-112.16	-58.3593	-183.893	-96.2142	-16.0304	-170.171	-107.908	-23.9571	-151.415	-122.065	-34.3067	-213.741	-58.7616	-4.79462	-229.151	-42.4947	12.7774	-208.644	-22.4004	-10.2229	
